<svg width="48" height="46" fill="none" xmlns="http://www.w3.org/2000/svg"><path d="M10.714 8.214h26.572c1.423 0 2.792.522 3.826 1.459a5.249 5.249 0 0 1 1.737 3.578l.008.303v18.892a5.221 5.221 0 0 1-1.522 3.668 5.677 5.677 0 0 1-3.734 1.664l-.315.008H10.714a5.704 5.704 0 0 1-3.826-1.459A5.249 5.249 0 0 1 5.15 32.75l-.008-.303V13.555c0-1.364.544-2.676 1.522-3.668a5.676 5.676 0 0 1 3.734-1.663l.315-.009h26.572-26.572Zm29.572 9.701-15.693 7.82a1.327 1.327 0 0 1-.994.078l-.192-.078-15.693-7.82v14.532c0 .721.283 1.416.793 1.947.51.53 1.21.858 1.96.918l.247.01h26.572c.753 0 1.478-.272 2.032-.761.554-.49.896-1.16.957-1.88l.01-.234V17.915Zm-3-7.236H10.714c-.753 0-1.478.271-2.032.76a2.831 2.831 0 0 0-.957 1.878l-.01.237v1.583L24 23.253l16.286-8.116v-1.583a2.81 2.81 0 0 0-.794-1.948 3.052 3.052 0 0 0-1.961-.918l-.245-.01Z" fill="#fff"/></svg>