<svg width="35" height="34" fill="none" xmlns="http://www.w3.org/2000/svg"><path d="m15.391 8.84-4.933-5.532c-.569-.638-1.612-.635-2.272.008L4.129 7.265c-1.208 1.174-1.554 2.918-.855 4.316C7.447 19.975 14.416 26.754 23.05 30.82c1.438.678 3.232.342 4.44-.832l4.095-3.985c.663-.645.665-1.663.002-2.216l-5.716-4.767c-.598-.499-1.527-.433-2.126.15l-1.99 1.935a.69.69 0 0 1-.806.125 20.934 20.934 0 0 1-7.817-7.603.64.64 0 0 1 .129-.785l1.983-1.928c.6-.587.666-1.493.147-2.076v.002Z" stroke="#fff" stroke-width="2" stroke-linecap="round" stroke-linejoin="round"/></svg>