<svg width="31" height="30" viewBox="0 0 31 30" fill="none" xmlns="http://www.w3.org/2000/svg">
<path d="M15.5 0C6.93952 0 0 6.71566 0 15C0 23.2843 6.93952 30 15.5 30C24.0605 30 31 23.2843 31 15C31 6.71566 24.0605 0 15.5 0Z" fill="#40B3E0"/>
<path d="M23.0421 8.62853L20.2735 22.1366C20.2735 22.1366 19.8864 23.0734 18.8216 22.6238L12.4329 17.8838L10.1099 16.7972L6.19929 15.5231C6.19929 15.5231 5.59915 15.3171 5.54102 14.8675C5.4829 14.4178 6.21866 14.1743 6.21866 14.1743L21.7642 8.27275C21.7642 8.27275 23.042 7.72947 23.042 8.62877" fill="white"/>
<path d="M11.942 21.9847C11.942 21.9847 11.7555 21.9678 11.523 21.2557C11.2909 20.5438 10.1099 16.7969 10.1099 16.7969L19.4992 11.0266C19.4992 11.0266 20.0414 10.7081 20.022 11.0266C20.022 11.0266 20.1188 11.0828 19.8282 11.3451C19.538 11.6075 12.4524 17.7712 12.4524 17.7712" fill="#D2E5F1"/>
<path d="M14.8825 19.7009L12.3557 21.9305C12.3557 21.9305 12.158 22.0756 11.942 21.9847L12.4259 17.8433" fill="#B5CFE4"/>
</svg>
