<svg width="31" height="30" fill="none" xmlns="http://www.w3.org/2000/svg"><path d="M15.5 0C6.94 0 0 6.716 0 15c0 8.284 6.94 15 15.5 15C24.06 30 31 23.284 31 15c0-8.284-6.94-15-15.5-15Z" fill="#40B3E0"/><path d="m23.042 8.629-2.769 13.508s-.387.936-1.451.487l-6.39-4.74-2.322-1.087-3.91-1.274s-.6-.206-.659-.655c-.058-.45.678-.694.678-.694l15.545-5.901s1.278-.544 1.278.356" fill="#fff"/><path d="M11.942 21.985s-.187-.017-.419-.73c-.232-.711-1.413-4.458-1.413-4.458l9.39-5.77s.541-.319.522 0c0 0 .097.056-.194.318-.29.262-7.376 6.426-7.376 6.426" fill="#D2E5F1"/><path d="m14.883 19.7-2.527 2.23s-.198.146-.414.055l.484-4.142" fill="#B5CFE4"/></svg>